<?xml version="1.0" encoding="UTF-8"?>
<!DOCTYPE svg PUBLIC "-//W3C//DTD SVG 1.1//EN" "http://www.w3.org/Graphics/SVG/1.1/DTD/svg11.dtd">
<!-- Creator: CorelDRAW -->
<svg xmlns="http://www.w3.org/2000/svg" xml:space="preserve" width="8.4666mm" height="8.4666mm" version="1.1" style="shape-rendering:geometricPrecision; text-rendering:geometricPrecision; image-rendering:optimizeQuality; fill-rule:evenodd; clip-rule:evenodd"
viewBox="0 0 846.66 846.66"
 xmlns:xlink="http://www.w3.org/1999/xlink"
 xmlns:xodm="http://www.corel.com/coreldraw/odm/2003">
 <defs>
  <style type="text/css">
   <![CDATA[
    .fil1 {fill:#FEFEFE}
    .fil0 {fill:#EE1317}
   ]]>
  </style>
 </defs>
 <g id="Camada_x0020_1">
  <metadata id="CorelCorpID_0Corel-Layer"/>
  <g id="_1910531742464">
   <path class="fil0" d="M52.84 457.15c-5.99,-92.95 19.45,-176.58 72.77,-247.99 11.02,-14.75 30.82,-37.96 43.56,-48.74 28.55,-24.15 43.81,-37.41 80.84,-57.05 40.19,-21.33 91.77,-37.22 143.86,-40.63 211.28,-13.82 381.29,145.79 394.15,341.01 6.01,91.27 -19.87,177.26 -72.82,247.63 -11.18,14.86 -30.61,37.82 -43.54,48.77 -27.77,23.52 -44.86,38.1 -80.86,57.03 -125.44,66 -278.7,52.35 -391.58,-32.16 -14.61,-10.94 -14.87,-12.27 -25.53,-21.2 -31.44,-26.37 -60.66,-66.4 -80.27,-103.19 -21.18,-39.73 -37.27,-91.99 -40.58,-143.48zm338.65 -449.2c-98.68,6.19 -173.4,42.39 -244.31,98.91l-52.95 53.41c-3.75,4.22 -8.07,9.96 -11.91,14.97 -7.77,10.13 -14.48,20.41 -21.35,31.26 -78.19,123.42 -85.55,288.64 -16.63,418.61 22.03,41.54 32.6,54.14 58.7,85.02l19.91 21.04c2.39,2.35 4.26,3.83 6.48,6.39 5.1,5.87 14.49,13.1 20.92,18.82 12.44,11.08 32.23,24.38 46.25,33.24 151.99,96.06 349.18,82.65 490.05,-30.05 2.51,-2.01 4.44,-3.86 6.98,-5.88 8.61,-6.88 35.48,-32.24 41.08,-39.55l23.79 -28.83c60.6,-78.81 91.25,-182.37 84.33,-284.54 -15.24,-224.96 -209.11,-408 -451.34,-392.82z"/>
   <path class="fil1" d="M376.21 443.91c90.56,-14.06 112.52,63.9 58.38,88.2 -6.69,3 -14.78,5.1 -22.78,6.3 -90.9,13.58 -111.58,-63.77 -58.92,-88 7.28,-3.35 14.61,-5.14 23.32,-6.5zm2.19 -121.59c71.31,-13.26 90.43,52.98 31.9,63.97 -55.31,10.38 -79.51,-26.81 -59.85,-50.49 5.91,-7.11 15.59,-11.18 27.95,-13.48zm99.2 89.25c3.29,-6.58 8.91,-11.5 13.34,-20.63 12.59,-25.91 9.95,-58.74 -4.54,-81.57 -16.07,-25.28 -50.3,-43.55 -92.88,-43.29 -112.51,0.69 -123.15,106.78 -82.34,145.1 -16.96,14.98 -29.22,24.12 -36.99,50.54 -21.13,71.84 33.24,132.33 119.33,132.75 87.3,0.42 141.87,-61.34 120.59,-132.79 -8.2,-27.55 -20.09,-35.71 -36.51,-50.11z"/>
   <polygon class="fil1" points="160.04,351.98 182.21,346.3 182.2,585.84 237,585.85 236.86,274.71 145.96,299.46 "/>
   <polygon class="fil1" points="544.87,457.68 609.56,457.67 609.93,522.57 664.55,522.5 665.14,457.67 729.67,457.69 729.66,402.88 664.64,402.87 664.51,337.9 609.91,338.03 609.3,402.87 544.9,402.83 544.86,453.64 "/>
  </g>
 </g>
</svg>
