<svg width="35" height="35" viewBox="0 0 35 35" fill="none" xmlns="http://www.w3.org/2000/svg">
<path d="M14.1601 9.17292C14.0245 9.03623 13.8632 8.92774 13.6855 8.8537C13.5078 8.77967 13.3172 8.74155 13.1247 8.74155C12.9321 8.74155 12.7415 8.77967 12.5638 8.8537C12.3861 8.92774 12.2248 9.03623 12.0893 9.17292L4.79758 16.4646C4.6609 16.6002 4.5524 16.7614 4.47837 16.9392C4.40433 17.1169 4.36621 17.3075 4.36621 17.5C4.36621 17.6925 4.40433 17.8831 4.47837 18.0608C4.5524 18.2386 4.6609 18.3998 4.79758 18.5354L12.0893 25.8271C12.2248 25.9638 12.3861 26.0723 12.5638 26.1463C12.7415 26.2203 12.9321 26.2585 13.1247 26.2585C13.3172 26.2585 13.5078 26.2203 13.6855 26.1463C13.8632 26.0723 14.0245 25.9638 14.1601 25.8271C14.2968 25.6915 14.4053 25.5302 14.4793 25.3525C14.5533 25.1748 14.5915 24.9842 14.5915 24.7917C14.5915 24.5992 14.5533 24.4085 14.4793 24.2308C14.4053 24.0531 14.2968 23.8918 14.1601 23.7563L7.88925 17.5L14.1601 11.2438C14.2968 11.1082 14.4053 10.9469 14.4793 10.7692C14.5533 10.5915 14.5915 10.4009 14.5915 10.2083C14.5915 10.0158 14.5533 9.82521 14.4793 9.64749C14.4053 9.46978 14.2968 9.30849 14.1601 9.17292ZM30.2017 16.4646L22.9101 9.17292C22.7741 9.03695 22.6127 8.92909 22.435 8.8555C22.2574 8.78191 22.067 8.74404 21.8747 8.74404C21.4863 8.74404 21.1139 8.89831 20.8393 9.17292C20.7033 9.30889 20.5954 9.47032 20.5218 9.64797C20.4482 9.82563 20.4104 10.016 20.4104 10.2083C20.4104 10.5967 20.5646 10.9691 20.8393 11.2438L27.1101 17.5L20.8393 23.7563C20.7026 23.8918 20.5941 24.0531 20.52 24.2308C20.446 24.4085 20.4079 24.5992 20.4079 24.7917C20.4079 24.9842 20.446 25.1748 20.52 25.3525C20.5941 25.5302 20.7026 25.6915 20.8393 25.8271C20.9748 25.9638 21.1361 26.0723 21.3138 26.1463C21.4915 26.2203 21.6821 26.2585 21.8747 26.2585C22.0672 26.2585 22.2578 26.2203 22.4355 26.1463C22.6132 26.0723 22.7745 25.9638 22.9101 25.8271L30.2017 18.5354C30.3384 18.3998 30.4469 18.2386 30.521 18.0608C30.595 17.8831 30.6331 17.6925 30.6331 17.5C30.6331 17.3075 30.595 17.1169 30.521 16.9392C30.4469 16.7614 30.3384 16.6002 30.2017 16.4646Z" fill="white"/>
</svg>
