<?xml version="1.0" encoding="UTF-8"?>
<!DOCTYPE svg PUBLIC "-//W3C//DTD SVG 1.1//EN" "http://www.w3.org/Graphics/SVG/1.1/DTD/svg11.dtd">
<!-- Creator: CorelDRAW -->
<svg xmlns="http://www.w3.org/2000/svg" xml:space="preserve" width="120mm" height="30mm" version="1.1" style="shape-rendering:geometricPrecision; text-rendering:geometricPrecision; image-rendering:optimizeQuality; fill-rule:evenodd; clip-rule:evenodd"
viewBox="0 0 12000 3000"
 xmlns:xlink="http://www.w3.org/1999/xlink"
 xmlns:xodm="http://www.corel.com/coreldraw/odm/2003">
 <defs>
  <style type="text/css">
   <![CDATA[
    .fil2 {fill:#FEFEFE}
    .fil1 {fill:#FFD60A}
    .fil0 {fill:#FEFEFE;fill-rule:nonzero}
    .fil3 {fill:#FFD60A;fill-rule:nonzero}
   ]]>
  </style>
 </defs>
 <g id="Camada_x0020_1">
  <metadata id="CorelCorpID_0Corel-Layer"/>
  <g id="_1910225596336">
   <path class="fil0" d="M570.76 1068.82l500.49 0 -1000.93 907.62 -70.38 443.93 1769.07 0 77.59 -505.07 -881.24 0 987.12 -873.85 70.38 -471.3 -1670.44 0 -35.5 205.06c-37.3,195.72 46.93,293.61 253.84,293.61z"/>
   <path class="fil0" d="M2030.06 2420.37l613.54 0 324.22 -2089.09c28.26,-191.06 -58.95,-286.59 -261.05,-286.59l-303.16 0 -373.55 2375.68z"/>
   <polygon class="fil1" points="352.41,353.45 2022.86,353.45 2022.86,481.51 352.41,481.51 "/>
   <polygon class="fil2" points="3634.15,5.73 3634.15,3005.73 3558.59,3005.73 3558.59,5.73 "/>
   <path class="fil3" d="M5107.77 1039.72c257.01,0 357.15,160.34 299.49,481.87 -57.64,321.53 -214.97,481.88 -472.42,481.88 -257.01,0 -357.13,-160.35 -299.49,-481.88 57.65,-321.53 214.98,-481.87 472.42,-481.87zm406.12 1160.61l142.16 -762.27c30.77,-173.78 6.07,-318.17 -73.68,-433.19 -79.31,-114.59 -224.09,-172.09 -434.29,-172.09 -406.11,-2.95 -654.89,224.56 -746.34,683.77 -91.45,462.58 62.41,693.86 462.02,693.86 193.3,0 343.69,-68.84 452.05,-206.94l-35.54 191.83c-40.74,223.31 -182.03,335.38 -423.88,337.06 -242.27,1.68 -348.03,-75.98 -317.69,-233.38l-253.98 0c-74.55,291.73 95.79,438.22 510.56,439.9 414.77,1.68 654.45,-177.56 718.61,-538.55zm741.57 -801.73c-284.32,49.11 -450.32,182.18 -497.56,398.36 -57.64,275.35 84.52,413.45 426.48,413.45 230.57,0 402.21,-41.14 515.76,-122.98 113.56,-82.28 185.5,-206.94 215.84,-374.01l101.42 -560.8c33.81,-213.23 -131.76,-319.84 -497.55,-319.84 -352.37,3.36 -550.44,126.34 -594.22,368.96l243.58 0c23.84,-117.95 128.72,-178.81 315.1,-181.75 213.23,-6.72 309.89,45.75 289.51,157.4 -16.9,94.87 -87.98,152.37 -213.23,172.11 -111.83,19.72 -213.68,36.09 -305.13,49.1zm467.65 63.81l-45.93 251.01c-37.28,203.16 -175.98,305.16 -416.52,305.16 -189.4,0 -271.75,-71.35 -246.17,-214.07 25.13,-142.72 137.82,-227.09 337.62,-253.53 111.82,-13.02 194.6,-26.03 248.79,-39.04 54.17,-13.43 94.91,-29.81 122.21,-49.53zm2026.64 -427.74c230.15,0 325.07,112.92 284.32,339.17l-121.79 669.09c-17.33,95.28 25.15,142.71 126.56,142.71l86.69 0 142.15 -787.04c71.08,-380.29 -89.72,-568.77 -482.38,-565.82 -213.68,0 -377.94,55.83 -492.8,167.48 -61.1,-115.01 -203.27,-172.1 -426.91,-172.1 -392.67,0 -622.81,190.15 -690.42,570.44l-142.17 787.04 238.38 0 147.37 -811.8c37.27,-226.25 171.19,-339.17 401.33,-339.17 230.14,0 326.8,108.3 289.53,324.48l-152.57 826.49 244.02 0 152.13 -831.11c34.23,-213.23 165.99,-319.86 396.56,-319.86zm1670.82 378.62c6.5,0 -247.48,0 -761.94,0 74.54,-249.33 224.07,-373.57 449.45,-373.57 224.94,0 329.39,124.24 312.49,373.57zm198.06 191.83c118.33,-514.62 -39,-772.34 -472.41,-772.34 -413.05,0 -662.25,229.6 -746.77,688.81 -78.02,459.21 82.78,688.82 482.38,688.82 332,0 560.41,-144.39 685.67,-433.19l-152.13 0c-61.12,0 -111.82,26.45 -152.56,78.91 -67.62,85.22 -174.24,132.65 -319.86,142.72 -240.55,0 -347.17,-131.38 -319.86,-393.73 670.49,0 1002.05,0 995.54,0zm1071.41 -137.67c-175.97,-49.11 -313.79,-88.58 -413.9,-117.95 -99.69,-29.81 -144.77,-80.6 -134.36,-152.38 19.94,-111.65 125.25,-169.16 314.65,-172.52 162.54,0 252.25,39.46 269.15,118.37 13.44,45.76 48.98,67.17 106.62,63.81l167.74 0c0,-249.33 -167.74,-374 -502.76,-374 -358.87,13.43 -560.41,141.03 -604.62,383.65 -30.35,173.78 55.91,290.47 259.19,349.23 203.27,59.19 328.52,93.61 375.76,103.68 125.26,29.39 177.71,85.22 157.33,167.07 -23.4,124.66 -151.26,186.79 -383.13,186.79 -231.88,0 -336.33,-90.25 -312.5,-270.32l-238.82 0c-67.61,304.73 98.39,457.53 498,457.53 413.05,0 644.93,-142.72 695.63,-428.15 30.35,-150.69 -54.17,-255.63 -253.98,-314.81z"/>
  </g>
 </g>
</svg>
