<svg width="19" height="18" viewBox="0 0 19 18" fill="none" xmlns="http://www.w3.org/2000/svg">
<path fill-rule="evenodd" clip-rule="evenodd" d="M4.92082 2.89327C4.80017 3.11518 4.64783 3.32165 4.46411 3.50536C4.27145 3.69774 4.05311 3.85472 3.81902 3.97857C3.53928 4.12662 3.7604 4.44373 3.7604 4.44373C4.04672 4.8793 4.3078 5.31692 4.52365 5.69816L3.0745 7.14598H1.66765C1.39709 7.14598 1.17776 7.36547 1.17776 7.63607C1.17776 7.90654 1.39709 8.12603 1.66765 8.12603H3.27708C3.40734 8.12603 3.53183 8.07443 3.62369 7.98264L8.91956 2.69282C9.01154 2.60084 9.06315 2.47606 9.06315 2.34619V0.729118C9.06315 0.458397 8.84376 0.23934 8.57313 0.23934C8.30226 0.23934 8.08286 0.458334 8.08286 0.729118V2.14307L6.63948 3.58443C6.24988 3.35452 5.79702 3.07264 5.34831 2.76266C5.34825 2.76278 5.09121 2.57982 4.92082 2.89327ZM2.60464 3.29473C2.16387 3.29473 1.74965 3.12331 1.43778 2.81196C1.12646 2.50093 0.955078 2.08719 0.955078 1.64734C0.955078 1.20717 1.12652 0.793804 1.43778 0.482832C1.74959 0.171736 2.16387 0.000123978 2.60464 0C3.04516 0 3.45945 0.171799 3.77101 0.482832C4.08258 0.793867 4.25421 1.20736 4.25421 1.64734C4.25421 2.08725 4.08251 2.50099 3.77101 2.81196C3.45951 3.12331 3.04516 3.29473 2.60464 3.29473ZM7.21795 6.69248C7.00073 6.47547 6.64531 6.47547 6.42809 6.69242L5.88163 7.23827C5.66441 7.45521 5.66441 7.81028 5.88163 8.02723L15.21 17.3448C15.4273 17.5618 15.8552 17.762 16.1609 17.7898L18.4474 17.9977C18.7532 18.0255 18.9806 17.7981 18.9528 17.4924L18.7452 15.2105C18.7174 14.9048 18.517 14.4772 18.2998 14.2601L8.97079 4.94145C8.75357 4.7245 8.39815 4.7245 8.18093 4.94145L7.63372 5.48804C7.4165 5.70499 7.4165 6.06006 7.63372 6.27707L15.4442 14.0795C15.5592 14.1941 15.5594 14.3804 15.4444 14.4951C15.3298 14.6101 15.1434 14.6101 15.0283 14.4953L7.21795 6.69248Z" fill="#94989D"/>
</svg>
